<svg class="main-svg" xmlns="http://www.w3.org/2000/svg" xmlns:xlink="http://www.w3.org/1999/xlink" width="3600" height="1800" style="" viewBox="0 0 3600 1800"><rect x="0" y="0" width="3600" height="1800" style="fill: rgb(255, 255, 255); fill-opacity: 1;"/><defs id="defs-a88280"><g class="clips"><clipPath id="clipa88280xyplot" class="plotclip"><rect width="3280" height="1538"/></clipPath><clipPath class="axesclip" id="clipa88280x"><rect x="240" y="0" width="3280" height="1800"/></clipPath><clipPath class="axesclip" id="clipa88280y"><rect x="0" y="100" width="3600" height="1538"/></clipPath><clipPath class="axesclip" id="clipa88280xy"><rect x="240" y="100" width="3280" height="1538"/></clipPath></g><g class="gradients"/></defs><g class="bglayer"><rect class="bg" x="240" y="100" width="3280" height="1538" style="fill: rgb(229, 236, 246); fill-opacity: 1; stroke-width: 0;"/></g><g class="layer-below"><g class="imagelayer"/><g class="shapelayer"/></g><g class="cartesianlayer"><g class="subplot xy"><g class="layer-subplot"><g class="shapelayer"/><g class="imagelayer"/></g><g class="gridlayer"><g class="x"><path class="xgrid crisp" transform="translate(279.81,0)" d="M0,100v1538" style="stroke: rgb(223, 91, 63); stroke-opacity: 1; stroke-width: 1px;"/><path class="xgrid crisp" transform="translate(598.25,0)" d="M0,100v1538" style="stroke: rgb(223, 91, 63); stroke-opacity: 1; stroke-width: 1px;"/><path class="xgrid crisp" transform="translate(916.7,0)" d="M0,100v1538" style="stroke: rgb(223, 91, 63); stroke-opacity: 1; stroke-width: 1px;"/><path class="xgrid crisp" transform="translate(1235.15,0)" d="M0,100v1538" style="stroke: rgb(223, 91, 63); stroke-opacity: 1; stroke-width: 1px;"/><path class="xgrid crisp" transform="translate(1553.59,0)" d="M0,100v1538" style="stroke: rgb(223, 91, 63); stroke-opacity: 1; stroke-width: 1px;"/><path class="xgrid crisp" transform="translate(1872.04,0)" d="M0,100v1538" style="stroke: rgb(223, 91, 63); stroke-opacity: 1; stroke-width: 1px;"/><path class="xgrid crisp" transform="translate(2190.49,0)" d="M0,100v1538" style="stroke: rgb(223, 91, 63); stroke-opacity: 1; stroke-width: 1px;"/><path class="xgrid crisp" transform="translate(2508.93,0)" d="M0,100v1538" style="stroke: rgb(223, 91, 63); stroke-opacity: 1; stroke-width: 1px;"/><path class="xgrid crisp" transform="translate(2827.38,0)" d="M0,100v1538" style="stroke: rgb(223, 91, 63); stroke-opacity: 1; stroke-width: 1px;"/><path class="xgrid crisp" transform="translate(3145.83,0)" d="M0,100v1538" style="stroke: rgb(223, 91, 63); stroke-opacity: 1; stroke-width: 1px;"/><path class="xgrid crisp" transform="translate(3464.27,0)" d="M0,100v1538" style="stroke: rgb(223, 91, 63); stroke-opacity: 1; stroke-width: 1px;"/></g><g class="y"><path class="ygrid crisp" transform="translate(0,1534.08)" d="M240,0h3280" style="stroke: rgb(223, 91, 63); stroke-opacity: 1; stroke-width: 1px;"/><path class="ygrid crisp" transform="translate(0,1430.16)" d="M240,0h3280" style="stroke: rgb(223, 91, 63); stroke-opacity: 1; stroke-width: 1px;"/><path class="ygrid crisp" transform="translate(0,1326.24)" d="M240,0h3280" style="stroke: rgb(223, 91, 63); stroke-opacity: 1; stroke-width: 1px;"/><path class="ygrid crisp" transform="translate(0,1222.32)" d="M240,0h3280" style="stroke: rgb(223, 91, 63); stroke-opacity: 1; stroke-width: 1px;"/><path class="ygrid crisp" transform="translate(0,1118.4099999999999)" d="M240,0h3280" style="stroke: rgb(223, 91, 63); stroke-opacity: 1; stroke-width: 1px;"/><path class="ygrid crisp" transform="translate(0,1014.49)" d="M240,0h3280" style="stroke: rgb(223, 91, 63); stroke-opacity: 1; stroke-width: 1px;"/><path class="ygrid crisp" transform="translate(0,910.57)" d="M240,0h3280" style="stroke: rgb(223, 91, 63); stroke-opacity: 1; stroke-width: 1px;"/><path class="ygrid crisp" transform="translate(0,806.65)" d="M240,0h3280" style="stroke: rgb(223, 91, 63); stroke-opacity: 1; stroke-width: 1px;"/><path class="ygrid crisp" transform="translate(0,702.73)" d="M240,0h3280" style="stroke: rgb(223, 91, 63); stroke-opacity: 1; stroke-width: 1px;"/><path class="ygrid crisp" transform="translate(0,598.81)" d="M240,0h3280" style="stroke: rgb(223, 91, 63); stroke-opacity: 1; stroke-width: 1px;"/><path class="ygrid crisp" transform="translate(0,494.89)" d="M240,0h3280" style="stroke: rgb(223, 91, 63); stroke-opacity: 1; stroke-width: 1px;"/><path class="ygrid crisp" transform="translate(0,390.97)" d="M240,0h3280" style="stroke: rgb(223, 91, 63); stroke-opacity: 1; stroke-width: 1px;"/><path class="ygrid crisp" transform="translate(0,287.05)" d="M240,0h3280" style="stroke: rgb(223, 91, 63); stroke-opacity: 1; stroke-width: 1px;"/><path class="ygrid crisp" transform="translate(0,183.14)" d="M240,0h3280" style="stroke: rgb(223, 91, 63); stroke-opacity: 1; stroke-width: 1px;"/></g></g><g class="zerolinelayer"/><path class="xlines-below"/><path class="ylines-below"/><g class="overlines-below"/><g class="xaxislayer-below"/><g class="yaxislayer-below"/><g class="overaxes-below"/><g class="plot" transform="translate(240,100)" clip-path="url('#clipa88280xyplot')"><g class="scatterlayer mlayer"><g class="trace scatter tracefa33bc" style="stroke-miterlimit: 2; opacity: 1;"><g class="fills"/><g class="errorbars"/><g class="lines"><path class="js-line" d="M39.81,411.17L119.42,437.73L199.03,425.85L278.64,414.74L358.25,376.67L437.86,399.95L517.48,496.61L597.09,523.32L676.7,496.83L756.31,504.7L835.92,482.45L915.53,511.47L995.15,585.7L1074.76,630.51L1154.37,641.72L1233.98,614.42L1313.59,679.56L1393.2,767.96L1472.82,823.47L1552.43,822.1L1632.04,880.74L1711.65,914.2L1791.26,945.95L1870.87,988.06L1950.49,1024.78L2030.1,1051.92L2109.71,1077.09L2189.32,1107.67L2268.93,1107.88L2348.54,1143.27L2428.16,1163.39L2507.77,1169.92L2587.38,1182.73L2746.6,1195.21L2826.21,1207.37L2905.83,1213.34L2985.44,1213.34L3144.66,1225.06L3224.27,1225.06" style="vector-effect: non-scaling-stroke; fill: none; stroke: rgb(0, 0, 0); stroke-opacity: 1; stroke-width: 2px; opacity: 1;"/></g><g class="points"><path class="point" transform="translate(39.81,411.17)" d="M3,0A3,3 0 1,1 0,-3A3,3 0 0,1 3,0Z" style="opacity: 1; stroke-width: 0px; fill: rgb(0, 0, 0); fill-opacity: 1;"/><path class="point" transform="translate(119.42,437.73)" d="M3,0A3,3 0 1,1 0,-3A3,3 0 0,1 3,0Z" style="opacity: 1; stroke-width: 0px; fill: rgb(0, 0, 0); fill-opacity: 1;"/><path class="point" transform="translate(199.03,425.85)" d="M3,0A3,3 0 1,1 0,-3A3,3 0 0,1 3,0Z" style="opacity: 1; stroke-width: 0px; fill: rgb(0, 0, 0); fill-opacity: 1;"/><path class="point" transform="translate(278.64,414.74)" d="M3,0A3,3 0 1,1 0,-3A3,3 0 0,1 3,0Z" style="opacity: 1; stroke-width: 0px; fill: rgb(0, 0, 0); fill-opacity: 1;"/><path class="point" transform="translate(358.25,376.67)" d="M3,0A3,3 0 1,1 0,-3A3,3 0 0,1 3,0Z" style="opacity: 1; stroke-width: 0px; fill: rgb(0, 0, 0); fill-opacity: 1;"/><path class="point" transform="translate(437.86,399.95)" d="M3,0A3,3 0 1,1 0,-3A3,3 0 0,1 3,0Z" style="opacity: 1; stroke-width: 0px; fill: rgb(0, 0, 0); fill-opacity: 1;"/><path class="point" transform="translate(517.48,496.61)" d="M3,0A3,3 0 1,1 0,-3A3,3 0 0,1 3,0Z" style="opacity: 1; stroke-width: 0px; fill: rgb(0, 0, 0); fill-opacity: 1;"/><path class="point" transform="translate(597.09,523.32)" d="M3,0A3,3 0 1,1 0,-3A3,3 0 0,1 3,0Z" style="opacity: 1; stroke-width: 0px; fill: rgb(0, 0, 0); fill-opacity: 1;"/><path class="point" transform="translate(676.7,496.83)" d="M3,0A3,3 0 1,1 0,-3A3,3 0 0,1 3,0Z" style="opacity: 1; stroke-width: 0px; fill: rgb(0, 0, 0); fill-opacity: 1;"/><path class="point" transform="translate(756.31,504.7)" d="M3,0A3,3 0 1,1 0,-3A3,3 0 0,1 3,0Z" style="opacity: 1; stroke-width: 0px; fill: rgb(0, 0, 0); fill-opacity: 1;"/><path class="point" transform="translate(835.92,482.45)" d="M3,0A3,3 0 1,1 0,-3A3,3 0 0,1 3,0Z" style="opacity: 1; stroke-width: 0px; fill: rgb(0, 0, 0); fill-opacity: 1;"/><path class="point" transform="translate(915.53,511.47)" d="M3,0A3,3 0 1,1 0,-3A3,3 0 0,1 3,0Z" style="opacity: 1; stroke-width: 0px; fill: rgb(0, 0, 0); fill-opacity: 1;"/><path class="point" transform="translate(995.15,585.7)" d="M3,0A3,3 0 1,1 0,-3A3,3 0 0,1 3,0Z" style="opacity: 1; stroke-width: 0px; fill: rgb(0, 0, 0); fill-opacity: 1;"/><path class="point" transform="translate(1074.76,630.51)" d="M3,0A3,3 0 1,1 0,-3A3,3 0 0,1 3,0Z" style="opacity: 1; stroke-width: 0px; fill: rgb(0, 0, 0); fill-opacity: 1;"/><path class="point" transform="translate(1154.37,641.72)" d="M3,0A3,3 0 1,1 0,-3A3,3 0 0,1 3,0Z" style="opacity: 1; stroke-width: 0px; fill: rgb(0, 0, 0); fill-opacity: 1;"/><path class="point" transform="translate(1233.98,614.42)" d="M3,0A3,3 0 1,1 0,-3A3,3 0 0,1 3,0Z" style="opacity: 1; stroke-width: 0px; fill: rgb(0, 0, 0); fill-opacity: 1;"/><path class="point" transform="translate(1313.59,679.56)" d="M3,0A3,3 0 1,1 0,-3A3,3 0 0,1 3,0Z" style="opacity: 1; stroke-width: 0px; fill: rgb(0, 0, 0); fill-opacity: 1;"/><path class="point" transform="translate(1393.2,767.96)" d="M3,0A3,3 0 1,1 0,-3A3,3 0 0,1 3,0Z" style="opacity: 1; stroke-width: 0px; fill: rgb(0, 0, 0); fill-opacity: 1;"/><path class="point" transform="translate(1472.82,823.47)" d="M3,0A3,3 0 1,1 0,-3A3,3 0 0,1 3,0Z" style="opacity: 1; stroke-width: 0px; fill: rgb(0, 0, 0); fill-opacity: 1;"/><path class="point" transform="translate(1552.43,822.1)" d="M3,0A3,3 0 1,1 0,-3A3,3 0 0,1 3,0Z" style="opacity: 1; stroke-width: 0px; fill: rgb(0, 0, 0); fill-opacity: 1;"/><path class="point" transform="translate(1632.04,880.74)" d="M3,0A3,3 0 1,1 0,-3A3,3 0 0,1 3,0Z" style="opacity: 1; stroke-width: 0px; fill: rgb(0, 0, 0); fill-opacity: 1;"/><path class="point" transform="translate(1711.65,914.2)" d="M3,0A3,3 0 1,1 0,-3A3,3 0 0,1 3,0Z" style="opacity: 1; stroke-width: 0px; fill: rgb(0, 0, 0); fill-opacity: 1;"/><path class="point" transform="translate(1791.26,945.95)" d="M3,0A3,3 0 1,1 0,-3A3,3 0 0,1 3,0Z" style="opacity: 1; stroke-width: 0px; fill: rgb(0, 0, 0); fill-opacity: 1;"/><path class="point" transform="translate(1870.87,988.06)" d="M3,0A3,3 0 1,1 0,-3A3,3 0 0,1 3,0Z" style="opacity: 1; stroke-width: 0px; fill: rgb(0, 0, 0); fill-opacity: 1;"/><path class="point" transform="translate(1950.49,1024.78)" d="M3,0A3,3 0 1,1 0,-3A3,3 0 0,1 3,0Z" style="opacity: 1; stroke-width: 0px; fill: rgb(0, 0, 0); fill-opacity: 1;"/><path class="point" transform="translate(2030.1,1051.92)" d="M3,0A3,3 0 1,1 0,-3A3,3 0 0,1 3,0Z" style="opacity: 1; stroke-width: 0px; fill: rgb(0, 0, 0); fill-opacity: 1;"/><path class="point" transform="translate(2109.71,1077.09)" d="M3,0A3,3 0 1,1 0,-3A3,3 0 0,1 3,0Z" style="opacity: 1; stroke-width: 0px; fill: rgb(0, 0, 0); fill-opacity: 1;"/><path class="point" transform="translate(2189.32,1107.67)" d="M3,0A3,3 0 1,1 0,-3A3,3 0 0,1 3,0Z" style="opacity: 1; stroke-width: 0px; fill: rgb(0, 0, 0); fill-opacity: 1;"/><path class="point" transform="translate(2268.93,1107.88)" d="M3,0A3,3 0 1,1 0,-3A3,3 0 0,1 3,0Z" style="opacity: 1; stroke-width: 0px; fill: rgb(0, 0, 0); fill-opacity: 1;"/><path class="point" transform="translate(2348.54,1143.27)" d="M3,0A3,3 0 1,1 0,-3A3,3 0 0,1 3,0Z" style="opacity: 1; stroke-width: 0px; fill: rgb(0, 0, 0); fill-opacity: 1;"/><path class="point" transform="translate(2428.16,1163.39)" d="M3,0A3,3 0 1,1 0,-3A3,3 0 0,1 3,0Z" style="opacity: 1; stroke-width: 0px; fill: rgb(0, 0, 0); fill-opacity: 1;"/><path class="point" transform="translate(2507.77,1169.92)" d="M3,0A3,3 0 1,1 0,-3A3,3 0 0,1 3,0Z" style="opacity: 1; stroke-width: 0px; fill: rgb(0, 0, 0); fill-opacity: 1;"/><path class="point" transform="translate(2587.38,1182.73)" d="M3,0A3,3 0 1,1 0,-3A3,3 0 0,1 3,0Z" style="opacity: 1; stroke-width: 0px; fill: rgb(0, 0, 0); fill-opacity: 1;"/><path class="point" transform="translate(2666.99,1189.01)" d="M3,0A3,3 0 1,1 0,-3A3,3 0 0,1 3,0Z" style="opacity: 1; stroke-width: 0px; fill: rgb(0, 0, 0); fill-opacity: 1;"/><path class="point" transform="translate(2746.6,1195.21)" d="M3,0A3,3 0 1,1 0,-3A3,3 0 0,1 3,0Z" style="opacity: 1; stroke-width: 0px; fill: rgb(0, 0, 0); fill-opacity: 1;"/><path class="point" transform="translate(2826.21,1207.37)" d="M3,0A3,3 0 1,1 0,-3A3,3 0 0,1 3,0Z" style="opacity: 1; stroke-width: 0px; fill: rgb(0, 0, 0); fill-opacity: 1;"/><path class="point" transform="translate(2905.83,1213.34)" d="M3,0A3,3 0 1,1 0,-3A3,3 0 0,1 3,0Z" style="opacity: 1; stroke-width: 0px; fill: rgb(0, 0, 0); fill-opacity: 1;"/><path class="point" transform="translate(2985.44,1213.34)" d="M3,0A3,3 0 1,1 0,-3A3,3 0 0,1 3,0Z" style="opacity: 1; stroke-width: 0px; fill: rgb(0, 0, 0); fill-opacity: 1;"/><path class="point" transform="translate(3065.05,1219.24)" d="M3,0A3,3 0 1,1 0,-3A3,3 0 0,1 3,0Z" style="opacity: 1; stroke-width: 0px; fill: rgb(0, 0, 0); fill-opacity: 1;"/><path class="point" transform="translate(3144.66,1225.06)" d="M3,0A3,3 0 1,1 0,-3A3,3 0 0,1 3,0Z" style="opacity: 1; stroke-width: 0px; fill: rgb(0, 0, 0); fill-opacity: 1;"/><path class="point" transform="translate(3224.27,1225.06)" d="M3,0A3,3 0 1,1 0,-3A3,3 0 0,1 3,0Z" style="opacity: 1; stroke-width: 0px; fill: rgb(0, 0, 0); fill-opacity: 1;"/></g><g class="text"><g class="textpoint" transform="translate(0,-21)"><text x="39.81" y="411.17" text-anchor="middle" style="font-family: Myriad; font-size: 65px; fill: rgb(42, 63, 95); fill-opacity: 1; white-space: pre;">21</text></g><g class="textpoint" transform="translate(0,-21)"><text x="199.03" y="425.85" text-anchor="middle" style="font-family: Myriad; font-size: 65px; fill: rgb(42, 63, 95); fill-opacity: 1; white-space: pre;">26</text></g><g class="textpoint" transform="translate(0,-21)"><text x="358.25" y="376.67" text-anchor="middle" style="font-family: Myriad; font-size: 65px; fill: rgb(42, 63, 95); fill-opacity: 1; white-space: pre;">31</text></g><g class="textpoint" transform="translate(0,-21)"><text x="517.48" y="496.61" text-anchor="middle" style="font-family: Myriad; font-size: 65px; fill: rgb(42, 63, 95); fill-opacity: 1; white-space: pre;">41</text></g><g class="textpoint" transform="translate(0,-21)"><text x="676.7" y="496.83" text-anchor="middle" style="font-family: Myriad; font-size: 65px; fill: rgb(42, 63, 95); fill-opacity: 1; white-space: pre;">46</text></g><g class="textpoint" transform="translate(0,-21)"><text x="835.92" y="482.45" text-anchor="middle" style="font-family: Myriad; font-size: 65px; fill: rgb(42, 63, 95); fill-opacity: 1; white-space: pre;">53</text></g><g class="textpoint" transform="translate(0,-21)"><text x="995.15" y="585.7" text-anchor="middle" style="font-family: Myriad; font-size: 65px; fill: rgb(42, 63, 95); fill-opacity: 1; white-space: pre;">62</text></g><g class="textpoint" transform="translate(0,-21)"><text x="1154.37" y="641.72" text-anchor="middle" style="font-family: Myriad; font-size: 65px; fill: rgb(42, 63, 95); fill-opacity: 1; white-space: pre;">74</text></g><g class="textpoint" transform="translate(0,-21)"><text x="1313.59" y="679.56" text-anchor="middle" style="font-family: Myriad; font-size: 65px; fill: rgb(42, 63, 95); fill-opacity: 1; white-space: pre;">83</text></g><g class="textpoint" transform="translate(0,-21)"><text x="1472.82" y="823.47" text-anchor="middle" style="font-family: Myriad; font-size: 65px; fill: rgb(42, 63, 95); fill-opacity: 1; white-space: pre;">97</text></g><g class="textpoint" transform="translate(0,-21)"><text x="1632.04" y="880.74" text-anchor="middle" style="font-family: Myriad; font-size: 65px; fill: rgb(42, 63, 95); fill-opacity: 1; white-space: pre;">108</text></g><g class="textpoint" transform="translate(0,-21)"><text x="1791.26" y="945.95" text-anchor="middle" style="font-family: Myriad; font-size: 65px; fill: rgb(42, 63, 95); fill-opacity: 1; white-space: pre;">114</text></g><g class="textpoint" transform="translate(0,-21)"><text x="1950.49" y="1024.78" text-anchor="middle" style="font-family: Myriad; font-size: 65px; fill: rgb(42, 63, 95); fill-opacity: 1; white-space: pre;">124</text></g><g class="textpoint" transform="translate(0,-21)"><text x="2109.71" y="1077.09" text-anchor="middle" style="font-family: Myriad; font-size: 65px; fill: rgb(42, 63, 95); fill-opacity: 1; white-space: pre;">134</text></g><g class="textpoint" transform="translate(0,-21)"><text x="2268.93" y="1107.88" text-anchor="middle" style="font-family: Myriad; font-size: 65px; fill: rgb(42, 63, 95); fill-opacity: 1; white-space: pre;">140</text></g><g class="textpoint" transform="translate(0,-21)"><text x="2428.16" y="1163.39" text-anchor="middle" style="font-family: Myriad; font-size: 65px; fill: rgb(42, 63, 95); fill-opacity: 1; white-space: pre;">148</text></g><g class="textpoint" transform="translate(0,-21)"><text x="2587.38" y="1182.73" text-anchor="middle" style="font-family: Myriad; font-size: 65px; fill: rgb(42, 63, 95); fill-opacity: 1; white-space: pre;">151</text></g><g class="textpoint" transform="translate(0,-21)"><text x="2746.6" y="1195.21" text-anchor="middle" style="font-family: Myriad; font-size: 65px; fill: rgb(42, 63, 95); fill-opacity: 1; white-space: pre;">153</text></g><g class="textpoint" transform="translate(0,-21)"><text x="2905.83" y="1213.34" text-anchor="middle" style="font-family: Myriad; font-size: 65px; fill: rgb(42, 63, 95); fill-opacity: 1; white-space: pre;">156</text></g><g class="textpoint" transform="translate(0,-21)"><text x="3065.05" y="1219.24" text-anchor="middle" style="font-family: Myriad; font-size: 65px; fill: rgb(42, 63, 95); fill-opacity: 1; white-space: pre;">157</text></g><g class="textpoint" transform="translate(0,-21)"><text x="3224.27" y="1225.06" text-anchor="middle" style="font-family: Myriad; font-size: 65px; fill: rgb(42, 63, 95); fill-opacity: 1; white-space: pre;">158</text></g></g></g><g class="trace scatter trace0c87c5" style="stroke-miterlimit: 2;"><g class="fills"><g><path class="js-fill" d="M39.81,138.25L119.42,169.74L199.03,166.34L278.64,163.19L358.25,152.69L437.86,177.39L517.48,260.32L597.09,285.61L676.7,271.97L756.31,286.2L835.92,274.34L915.53,298.93L995.15,373.18L1074.76,420.56L1154.37,438.49L1233.98,419.53L1313.59,482.85L1393.2,570.86L1472.82,629.56L1552.43,631.08L1632.04,693.62L1711.65,728.12L1791.26,761.14L1870.87,806.62L1950.49,845.46L2030.1,875.62L2109.71,903.78L2189.32,936.67L2268.93,938.07L2348.54,976.36L2428.16,998.23L2507.77,1005.35L2587.38,1019.33L2746.6,1032.98L2826.21,1046.32L2905.83,1052.88L2985.44,1052.88L3144.66,1065.76L3224.27,1065.76L3224.27,1384.36L3144.66,1384.36L2985.44,1373.81L2905.83,1373.81L2826.21,1368.43L2746.6,1357.43L2587.38,1346.12L2507.77,1334.49L2428.16,1328.55L2348.54,1310.18L2268.93,1277.68L2189.32,1278.67L2109.71,1250.4L2030.1,1228.22L1950.49,1204.1L1870.87,1169.51L1791.26,1130.77L1711.65,1100.28L1632.04,1067.87L1552.43,1013.12L1472.82,1017.38L1393.2,965.06L1313.59,876.28L1233.98,809.32L1154.37,844.95L1074.76,840.47L995.15,798.21L915.53,724.02L835.92,690.55L756.31,723.19L676.7,721.68L597.09,761.04L517.48,732.89L437.86,622.5L358.25,600.65L278.64,666.28L199.03,685.36L119.42,705.73L39.81,684.08Z" style="fill: rgb(255, 87, 51); fill-opacity: 0.5; stroke-width: 0;"/></g></g><g class="errorbars"/><g class="lines"><path class="js-line" d="M39.81,684.08L119.42,705.73L199.03,685.36L278.64,666.28L358.25,600.65L437.86,622.5L517.48,732.89L597.09,761.04L676.7,721.68L756.31,723.19L835.92,690.55L915.53,724.02L995.15,798.21L1074.76,840.47L1154.37,844.95L1233.98,809.32L1313.59,876.28L1393.2,965.06L1472.82,1017.38L1552.43,1013.12L1632.04,1067.87L1711.65,1100.28L1791.26,1130.77L1870.87,1169.51L1950.49,1204.1L2030.1,1228.22L2109.71,1250.4L2189.32,1278.67L2268.93,1277.68L2348.54,1310.18L2428.16,1328.55L2507.77,1334.49L2587.38,1346.12L2746.6,1357.43L2826.21,1368.43L2905.83,1373.81L2985.44,1373.81L3144.66,1384.36L3224.27,1384.36" style="vector-effect: non-scaling-stroke; fill: none; stroke: rgb(255, 87, 51); stroke-opacity: 1; stroke-width: 2px; opacity: 1;"/></g><g class="points"><path class="point" transform="translate(39.81,684.08)" d="M3,0A3,3 0 1,1 0,-3A3,3 0 0,1 3,0Z" style="opacity: 1; stroke-width: 0px; fill: rgb(255, 87, 51); fill-opacity: 1;"/><path class="point" transform="translate(119.42,705.73)" d="M3,0A3,3 0 1,1 0,-3A3,3 0 0,1 3,0Z" style="opacity: 1; stroke-width: 0px; fill: rgb(255, 87, 51); fill-opacity: 1;"/><path class="point" transform="translate(199.03,685.36)" d="M3,0A3,3 0 1,1 0,-3A3,3 0 0,1 3,0Z" style="opacity: 1; stroke-width: 0px; fill: rgb(255, 87, 51); fill-opacity: 1;"/><path class="point" transform="translate(278.64,666.28)" d="M3,0A3,3 0 1,1 0,-3A3,3 0 0,1 3,0Z" style="opacity: 1; stroke-width: 0px; fill: rgb(255, 87, 51); fill-opacity: 1;"/><path class="point" transform="translate(358.25,600.65)" d="M3,0A3,3 0 1,1 0,-3A3,3 0 0,1 3,0Z" style="opacity: 1; stroke-width: 0px; fill: rgb(255, 87, 51); fill-opacity: 1;"/><path class="point" transform="translate(437.86,622.5)" d="M3,0A3,3 0 1,1 0,-3A3,3 0 0,1 3,0Z" style="opacity: 1; stroke-width: 0px; fill: rgb(255, 87, 51); fill-opacity: 1;"/><path class="point" transform="translate(517.48,732.89)" d="M3,0A3,3 0 1,1 0,-3A3,3 0 0,1 3,0Z" style="opacity: 1; stroke-width: 0px; fill: rgb(255, 87, 51); fill-opacity: 1;"/><path class="point" transform="translate(597.09,761.04)" d="M3,0A3,3 0 1,1 0,-3A3,3 0 0,1 3,0Z" style="opacity: 1; stroke-width: 0px; fill: rgb(255, 87, 51); fill-opacity: 1;"/><path class="point" transform="translate(676.7,721.68)" d="M3,0A3,3 0 1,1 0,-3A3,3 0 0,1 3,0Z" style="opacity: 1; stroke-width: 0px; fill: rgb(255, 87, 51); fill-opacity: 1;"/><path class="point" transform="translate(756.31,723.19)" d="M3,0A3,3 0 1,1 0,-3A3,3 0 0,1 3,0Z" style="opacity: 1; stroke-width: 0px; fill: rgb(255, 87, 51); fill-opacity: 1;"/><path class="point" transform="translate(835.92,690.55)" d="M3,0A3,3 0 1,1 0,-3A3,3 0 0,1 3,0Z" style="opacity: 1; stroke-width: 0px; fill: rgb(255, 87, 51); fill-opacity: 1;"/><path class="point" transform="translate(915.53,724.02)" d="M3,0A3,3 0 1,1 0,-3A3,3 0 0,1 3,0Z" style="opacity: 1; stroke-width: 0px; fill: rgb(255, 87, 51); fill-opacity: 1;"/><path class="point" transform="translate(995.15,798.21)" d="M3,0A3,3 0 1,1 0,-3A3,3 0 0,1 3,0Z" style="opacity: 1; stroke-width: 0px; fill: rgb(255, 87, 51); fill-opacity: 1;"/><path class="point" transform="translate(1074.76,840.47)" d="M3,0A3,3 0 1,1 0,-3A3,3 0 0,1 3,0Z" style="opacity: 1; stroke-width: 0px; fill: rgb(255, 87, 51); fill-opacity: 1;"/><path class="point" transform="translate(1154.37,844.95)" d="M3,0A3,3 0 1,1 0,-3A3,3 0 0,1 3,0Z" style="opacity: 1; stroke-width: 0px; fill: rgb(255, 87, 51); fill-opacity: 1;"/><path class="point" transform="translate(1233.98,809.32)" d="M3,0A3,3 0 1,1 0,-3A3,3 0 0,1 3,0Z" style="opacity: 1; stroke-width: 0px; fill: rgb(255, 87, 51); fill-opacity: 1;"/><path class="point" transform="translate(1313.59,876.28)" d="M3,0A3,3 0 1,1 0,-3A3,3 0 0,1 3,0Z" style="opacity: 1; stroke-width: 0px; fill: rgb(255, 87, 51); fill-opacity: 1;"/><path class="point" transform="translate(1393.2,965.06)" d="M3,0A3,3 0 1,1 0,-3A3,3 0 0,1 3,0Z" style="opacity: 1; stroke-width: 0px; fill: rgb(255, 87, 51); fill-opacity: 1;"/><path class="point" transform="translate(1472.82,1017.38)" d="M3,0A3,3 0 1,1 0,-3A3,3 0 0,1 3,0Z" style="opacity: 1; stroke-width: 0px; fill: rgb(255, 87, 51); fill-opacity: 1;"/><path class="point" transform="translate(1552.43,1013.12)" d="M3,0A3,3 0 1,1 0,-3A3,3 0 0,1 3,0Z" style="opacity: 1; stroke-width: 0px; fill: rgb(255, 87, 51); fill-opacity: 1;"/><path class="point" transform="translate(1632.04,1067.87)" d="M3,0A3,3 0 1,1 0,-3A3,3 0 0,1 3,0Z" style="opacity: 1; stroke-width: 0px; fill: rgb(255, 87, 51); fill-opacity: 1;"/><path class="point" transform="translate(1711.65,1100.28)" d="M3,0A3,3 0 1,1 0,-3A3,3 0 0,1 3,0Z" style="opacity: 1; stroke-width: 0px; fill: rgb(255, 87, 51); fill-opacity: 1;"/><path class="point" transform="translate(1791.26,1130.77)" d="M3,0A3,3 0 1,1 0,-3A3,3 0 0,1 3,0Z" style="opacity: 1; stroke-width: 0px; fill: rgb(255, 87, 51); fill-opacity: 1;"/><path class="point" transform="translate(1870.87,1169.51)" d="M3,0A3,3 0 1,1 0,-3A3,3 0 0,1 3,0Z" style="opacity: 1; stroke-width: 0px; fill: rgb(255, 87, 51); fill-opacity: 1;"/><path class="point" transform="translate(1950.49,1204.1)" d="M3,0A3,3 0 1,1 0,-3A3,3 0 0,1 3,0Z" style="opacity: 1; stroke-width: 0px; fill: rgb(255, 87, 51); fill-opacity: 1;"/><path class="point" transform="translate(2030.1,1228.22)" d="M3,0A3,3 0 1,1 0,-3A3,3 0 0,1 3,0Z" style="opacity: 1; stroke-width: 0px; fill: rgb(255, 87, 51); fill-opacity: 1;"/><path class="point" transform="translate(2109.71,1250.4)" d="M3,0A3,3 0 1,1 0,-3A3,3 0 0,1 3,0Z" style="opacity: 1; stroke-width: 0px; fill: rgb(255, 87, 51); fill-opacity: 1;"/><path class="point" transform="translate(2189.32,1278.67)" d="M3,0A3,3 0 1,1 0,-3A3,3 0 0,1 3,0Z" style="opacity: 1; stroke-width: 0px; fill: rgb(255, 87, 51); fill-opacity: 1;"/><path class="point" transform="translate(2268.93,1277.68)" d="M3,0A3,3 0 1,1 0,-3A3,3 0 0,1 3,0Z" style="opacity: 1; stroke-width: 0px; fill: rgb(255, 87, 51); fill-opacity: 1;"/><path class="point" transform="translate(2348.54,1310.18)" d="M3,0A3,3 0 1,1 0,-3A3,3 0 0,1 3,0Z" style="opacity: 1; stroke-width: 0px; fill: rgb(255, 87, 51); fill-opacity: 1;"/><path class="point" transform="translate(2428.16,1328.55)" d="M3,0A3,3 0 1,1 0,-3A3,3 0 0,1 3,0Z" style="opacity: 1; stroke-width: 0px; fill: rgb(255, 87, 51); fill-opacity: 1;"/><path class="point" transform="translate(2507.77,1334.49)" d="M3,0A3,3 0 1,1 0,-3A3,3 0 0,1 3,0Z" style="opacity: 1; stroke-width: 0px; fill: rgb(255, 87, 51); fill-opacity: 1;"/><path class="point" transform="translate(2587.38,1346.12)" d="M3,0A3,3 0 1,1 0,-3A3,3 0 0,1 3,0Z" style="opacity: 1; stroke-width: 0px; fill: rgb(255, 87, 51); fill-opacity: 1;"/><path class="point" transform="translate(2666.99,1351.82)" d="M3,0A3,3 0 1,1 0,-3A3,3 0 0,1 3,0Z" style="opacity: 1; stroke-width: 0px; fill: rgb(255, 87, 51); fill-opacity: 1;"/><path class="point" transform="translate(2746.6,1357.43)" d="M3,0A3,3 0 1,1 0,-3A3,3 0 0,1 3,0Z" style="opacity: 1; stroke-width: 0px; fill: rgb(255, 87, 51); fill-opacity: 1;"/><path class="point" transform="translate(2826.21,1368.43)" d="M3,0A3,3 0 1,1 0,-3A3,3 0 0,1 3,0Z" style="opacity: 1; stroke-width: 0px; fill: rgb(255, 87, 51); fill-opacity: 1;"/><path class="point" transform="translate(2905.83,1373.81)" d="M3,0A3,3 0 1,1 0,-3A3,3 0 0,1 3,0Z" style="opacity: 1; stroke-width: 0px; fill: rgb(255, 87, 51); fill-opacity: 1;"/><path class="point" transform="translate(2985.44,1373.81)" d="M3,0A3,3 0 1,1 0,-3A3,3 0 0,1 3,0Z" style="opacity: 1; stroke-width: 0px; fill: rgb(255, 87, 51); fill-opacity: 1;"/><path class="point" transform="translate(3065.05,1379.12)" d="M3,0A3,3 0 1,1 0,-3A3,3 0 0,1 3,0Z" style="opacity: 1; stroke-width: 0px; fill: rgb(255, 87, 51); fill-opacity: 1;"/><path class="point" transform="translate(3144.66,1384.36)" d="M3,0A3,3 0 1,1 0,-3A3,3 0 0,1 3,0Z" style="opacity: 1; stroke-width: 0px; fill: rgb(255, 87, 51); fill-opacity: 1;"/><path class="point" transform="translate(3224.27,1384.36)" d="M3,0A3,3 0 1,1 0,-3A3,3 0 0,1 3,0Z" style="opacity: 1; stroke-width: 0px; fill: rgb(255, 87, 51); fill-opacity: 1;"/></g><g class="text"/></g><g class="trace scatter trace16635f" style="stroke-miterlimit: 2;"><g class="fills"/><g class="errorbars"/><g class="lines"><path class="js-line" d="M39.81,138.25L119.42,169.74L199.03,166.34L278.64,163.19L358.25,152.69L437.86,177.39L517.48,260.32L597.09,285.61L676.7,271.97L756.31,286.2L835.92,274.34L915.53,298.93L995.15,373.18L1074.76,420.56L1154.37,438.49L1233.98,419.53L1313.59,482.85L1393.2,570.86L1472.82,629.56L1552.43,631.08L1632.04,693.62L1711.65,728.12L1791.26,761.14L1870.87,806.62L1950.49,845.46L2030.1,875.62L2109.71,903.78L2189.32,936.67L2268.93,938.07L2348.54,976.36L2428.16,998.23L2507.77,1005.35L2587.38,1019.33L2746.6,1032.98L2826.21,1046.32L2905.83,1052.88L2985.44,1052.88L3144.66,1065.76L3224.27,1065.76" style="vector-effect: non-scaling-stroke; fill: none; stroke: rgb(255, 87, 51); stroke-opacity: 1; stroke-width: 2px; opacity: 1;"/></g><g class="points"><path class="point" transform="translate(39.81,138.25)" d="M3,0A3,3 0 1,1 0,-3A3,3 0 0,1 3,0Z" style="opacity: 1; stroke-width: 0px; fill: rgb(255, 87, 51); fill-opacity: 1;"/><path class="point" transform="translate(119.42,169.74)" d="M3,0A3,3 0 1,1 0,-3A3,3 0 0,1 3,0Z" style="opacity: 1; stroke-width: 0px; fill: rgb(255, 87, 51); fill-opacity: 1;"/><path class="point" transform="translate(199.03,166.34)" d="M3,0A3,3 0 1,1 0,-3A3,3 0 0,1 3,0Z" style="opacity: 1; stroke-width: 0px; fill: rgb(255, 87, 51); fill-opacity: 1;"/><path class="point" transform="translate(278.64,163.19)" d="M3,0A3,3 0 1,1 0,-3A3,3 0 0,1 3,0Z" style="opacity: 1; stroke-width: 0px; fill: rgb(255, 87, 51); fill-opacity: 1;"/><path class="point" transform="translate(358.25,152.69)" d="M3,0A3,3 0 1,1 0,-3A3,3 0 0,1 3,0Z" style="opacity: 1; stroke-width: 0px; fill: rgb(255, 87, 51); fill-opacity: 1;"/><path class="point" transform="translate(437.86,177.39)" d="M3,0A3,3 0 1,1 0,-3A3,3 0 0,1 3,0Z" style="opacity: 1; stroke-width: 0px; fill: rgb(255, 87, 51); fill-opacity: 1;"/><path class="point" transform="translate(517.48,260.32)" d="M3,0A3,3 0 1,1 0,-3A3,3 0 0,1 3,0Z" style="opacity: 1; stroke-width: 0px; fill: rgb(255, 87, 51); fill-opacity: 1;"/><path class="point" transform="translate(597.09,285.61)" d="M3,0A3,3 0 1,1 0,-3A3,3 0 0,1 3,0Z" style="opacity: 1; stroke-width: 0px; fill: rgb(255, 87, 51); fill-opacity: 1;"/><path class="point" transform="translate(676.7,271.97)" d="M3,0A3,3 0 1,1 0,-3A3,3 0 0,1 3,0Z" style="opacity: 1; stroke-width: 0px; fill: rgb(255, 87, 51); fill-opacity: 1;"/><path class="point" transform="translate(756.31,286.2)" d="M3,0A3,3 0 1,1 0,-3A3,3 0 0,1 3,0Z" style="opacity: 1; stroke-width: 0px; fill: rgb(255, 87, 51); fill-opacity: 1;"/><path class="point" transform="translate(835.92,274.34)" d="M3,0A3,3 0 1,1 0,-3A3,3 0 0,1 3,0Z" style="opacity: 1; stroke-width: 0px; fill: rgb(255, 87, 51); fill-opacity: 1;"/><path class="point" transform="translate(915.53,298.93)" d="M3,0A3,3 0 1,1 0,-3A3,3 0 0,1 3,0Z" style="opacity: 1; stroke-width: 0px; fill: rgb(255, 87, 51); fill-opacity: 1;"/><path class="point" transform="translate(995.15,373.18)" d="M3,0A3,3 0 1,1 0,-3A3,3 0 0,1 3,0Z" style="opacity: 1; stroke-width: 0px; fill: rgb(255, 87, 51); fill-opacity: 1;"/><path class="point" transform="translate(1074.76,420.56)" d="M3,0A3,3 0 1,1 0,-3A3,3 0 0,1 3,0Z" style="opacity: 1; stroke-width: 0px; fill: rgb(255, 87, 51); fill-opacity: 1;"/><path class="point" transform="translate(1154.37,438.49)" d="M3,0A3,3 0 1,1 0,-3A3,3 0 0,1 3,0Z" style="opacity: 1; stroke-width: 0px; fill: rgb(255, 87, 51); fill-opacity: 1;"/><path class="point" transform="translate(1233.98,419.53)" d="M3,0A3,3 0 1,1 0,-3A3,3 0 0,1 3,0Z" style="opacity: 1; stroke-width: 0px; fill: rgb(255, 87, 51); fill-opacity: 1;"/><path class="point" transform="translate(1313.59,482.85)" d="M3,0A3,3 0 1,1 0,-3A3,3 0 0,1 3,0Z" style="opacity: 1; stroke-width: 0px; fill: rgb(255, 87, 51); fill-opacity: 1;"/><path class="point" transform="translate(1393.2,570.86)" d="M3,0A3,3 0 1,1 0,-3A3,3 0 0,1 3,0Z" style="opacity: 1; stroke-width: 0px; fill: rgb(255, 87, 51); fill-opacity: 1;"/><path class="point" transform="translate(1472.82,629.56)" d="M3,0A3,3 0 1,1 0,-3A3,3 0 0,1 3,0Z" style="opacity: 1; stroke-width: 0px; fill: rgb(255, 87, 51); fill-opacity: 1;"/><path class="point" transform="translate(1552.43,631.08)" d="M3,0A3,3 0 1,1 0,-3A3,3 0 0,1 3,0Z" style="opacity: 1; stroke-width: 0px; fill: rgb(255, 87, 51); fill-opacity: 1;"/><path class="point" transform="translate(1632.04,693.62)" d="M3,0A3,3 0 1,1 0,-3A3,3 0 0,1 3,0Z" style="opacity: 1; stroke-width: 0px; fill: rgb(255, 87, 51); fill-opacity: 1;"/><path class="point" transform="translate(1711.65,728.12)" d="M3,0A3,3 0 1,1 0,-3A3,3 0 0,1 3,0Z" style="opacity: 1; stroke-width: 0px; fill: rgb(255, 87, 51); fill-opacity: 1;"/><path class="point" transform="translate(1791.26,761.14)" d="M3,0A3,3 0 1,1 0,-3A3,3 0 0,1 3,0Z" style="opacity: 1; stroke-width: 0px; fill: rgb(255, 87, 51); fill-opacity: 1;"/><path class="point" transform="translate(1870.87,806.62)" d="M3,0A3,3 0 1,1 0,-3A3,3 0 0,1 3,0Z" style="opacity: 1; stroke-width: 0px; fill: rgb(255, 87, 51); fill-opacity: 1;"/><path class="point" transform="translate(1950.49,845.46)" d="M3,0A3,3 0 1,1 0,-3A3,3 0 0,1 3,0Z" style="opacity: 1; stroke-width: 0px; fill: rgb(255, 87, 51); fill-opacity: 1;"/><path class="point" transform="translate(2030.1,875.62)" d="M3,0A3,3 0 1,1 0,-3A3,3 0 0,1 3,0Z" style="opacity: 1; stroke-width: 0px; fill: rgb(255, 87, 51); fill-opacity: 1;"/><path class="point" transform="translate(2109.71,903.78)" d="M3,0A3,3 0 1,1 0,-3A3,3 0 0,1 3,0Z" style="opacity: 1; stroke-width: 0px; fill: rgb(255, 87, 51); fill-opacity: 1;"/><path class="point" transform="translate(2189.32,936.67)" d="M3,0A3,3 0 1,1 0,-3A3,3 0 0,1 3,0Z" style="opacity: 1; stroke-width: 0px; fill: rgb(255, 87, 51); fill-opacity: 1;"/><path class="point" transform="translate(2268.93,938.07)" d="M3,0A3,3 0 1,1 0,-3A3,3 0 0,1 3,0Z" style="opacity: 1; stroke-width: 0px; fill: rgb(255, 87, 51); fill-opacity: 1;"/><path class="point" transform="translate(2348.54,976.36)" d="M3,0A3,3 0 1,1 0,-3A3,3 0 0,1 3,0Z" style="opacity: 1; stroke-width: 0px; fill: rgb(255, 87, 51); fill-opacity: 1;"/><path class="point" transform="translate(2428.16,998.23)" d="M3,0A3,3 0 1,1 0,-3A3,3 0 0,1 3,0Z" style="opacity: 1; stroke-width: 0px; fill: rgb(255, 87, 51); fill-opacity: 1;"/><path class="point" transform="translate(2507.77,1005.35)" d="M3,0A3,3 0 1,1 0,-3A3,3 0 0,1 3,0Z" style="opacity: 1; stroke-width: 0px; fill: rgb(255, 87, 51); fill-opacity: 1;"/><path class="point" transform="translate(2587.38,1019.33)" d="M3,0A3,3 0 1,1 0,-3A3,3 0 0,1 3,0Z" style="opacity: 1; stroke-width: 0px; fill: rgb(255, 87, 51); fill-opacity: 1;"/><path class="point" transform="translate(2666.99,1026.2)" d="M3,0A3,3 0 1,1 0,-3A3,3 0 0,1 3,0Z" style="opacity: 1; stroke-width: 0px; fill: rgb(255, 87, 51); fill-opacity: 1;"/><path class="point" transform="translate(2746.6,1032.98)" d="M3,0A3,3 0 1,1 0,-3A3,3 0 0,1 3,0Z" style="opacity: 1; stroke-width: 0px; fill: rgb(255, 87, 51); fill-opacity: 1;"/><path class="point" transform="translate(2826.21,1046.32)" d="M3,0A3,3 0 1,1 0,-3A3,3 0 0,1 3,0Z" style="opacity: 1; stroke-width: 0px; fill: rgb(255, 87, 51); fill-opacity: 1;"/><path class="point" transform="translate(2905.83,1052.88)" d="M3,0A3,3 0 1,1 0,-3A3,3 0 0,1 3,0Z" style="opacity: 1; stroke-width: 0px; fill: rgb(255, 87, 51); fill-opacity: 1;"/><path class="point" transform="translate(2985.44,1052.88)" d="M3,0A3,3 0 1,1 0,-3A3,3 0 0,1 3,0Z" style="opacity: 1; stroke-width: 0px; fill: rgb(255, 87, 51); fill-opacity: 1;"/><path class="point" transform="translate(3065.05,1059.36)" d="M3,0A3,3 0 1,1 0,-3A3,3 0 0,1 3,0Z" style="opacity: 1; stroke-width: 0px; fill: rgb(255, 87, 51); fill-opacity: 1;"/><path class="point" transform="translate(3144.66,1065.76)" d="M3,0A3,3 0 1,1 0,-3A3,3 0 0,1 3,0Z" style="opacity: 1; stroke-width: 0px; fill: rgb(255, 87, 51); fill-opacity: 1;"/><path class="point" transform="translate(3224.27,1065.76)" d="M3,0A3,3 0 1,1 0,-3A3,3 0 0,1 3,0Z" style="opacity: 1; stroke-width: 0px; fill: rgb(255, 87, 51); fill-opacity: 1;"/></g><g class="text"/></g></g></g><g class="overplot"/><path class="xlines-above crisp" d="M0,0" style="fill: none;"/><path class="ylines-above crisp" d="M0,0" style="fill: none;"/><g class="overlines-above"/><g class="xaxislayer-above"><g class="xtick"><text text-anchor="middle" x="0" y="1709" transform="translate(279.81,0)" style="font-family: Myriad; font-size: 70px; fill: rgb(42, 63, 95); fill-opacity: 1; white-space: pre;">20</text></g><g class="xtick"><text text-anchor="middle" x="0" y="1709" transform="translate(598.25,0)" style="font-family: Myriad; font-size: 70px; fill: rgb(42, 63, 95); fill-opacity: 1; white-space: pre;">22</text></g><g class="xtick"><text text-anchor="middle" x="0" y="1709" transform="translate(916.7,0)" style="font-family: Myriad; font-size: 70px; fill: rgb(42, 63, 95); fill-opacity: 1; white-space: pre;">24</text></g><g class="xtick"><text text-anchor="middle" x="0" y="1709" transform="translate(1235.15,0)" style="font-family: Myriad; font-size: 70px; fill: rgb(42, 63, 95); fill-opacity: 1; white-space: pre;">26</text></g><g class="xtick"><text text-anchor="middle" x="0" y="1709" transform="translate(1553.59,0)" style="font-family: Myriad; font-size: 70px; fill: rgb(42, 63, 95); fill-opacity: 1; white-space: pre;">28</text></g><g class="xtick"><text text-anchor="middle" x="0" y="1709" transform="translate(1872.04,0)" style="font-family: Myriad; font-size: 70px; fill: rgb(42, 63, 95); fill-opacity: 1; white-space: pre;">30</text></g><g class="xtick"><text text-anchor="middle" x="0" y="1709" transform="translate(2190.49,0)" style="font-family: Myriad; font-size: 70px; fill: rgb(42, 63, 95); fill-opacity: 1; white-space: pre;">32</text></g><g class="xtick"><text text-anchor="middle" x="0" y="1709" transform="translate(2508.93,0)" style="font-family: Myriad; font-size: 70px; fill: rgb(42, 63, 95); fill-opacity: 1; white-space: pre;">34</text></g><g class="xtick"><text text-anchor="middle" x="0" y="1709" transform="translate(2827.38,0)" style="font-family: Myriad; font-size: 70px; fill: rgb(42, 63, 95); fill-opacity: 1; white-space: pre;">36</text></g><g class="xtick"><text text-anchor="middle" x="0" y="1709" transform="translate(3145.83,0)" style="font-family: Myriad; font-size: 70px; fill: rgb(42, 63, 95); fill-opacity: 1; white-space: pre;">38</text></g><g class="xtick"><text text-anchor="middle" x="0" y="1709" transform="translate(3464.27,0)" style="font-family: Myriad; font-size: 70px; fill: rgb(42, 63, 95); fill-opacity: 1; white-space: pre;">40</text></g></g><g class="yaxislayer-above"><g class="ytick"><text text-anchor="end" x="239" y="24.5" transform="translate(0,1638)" style="font-family: Myriad; font-size: 70px; fill: rgb(42, 63, 95); fill-opacity: 1; white-space: pre;">30%</text></g><g class="ytick"><text text-anchor="end" x="239" y="24.5" transform="translate(0,1534.08)" style="font-family: Myriad; font-size: 70px; fill: rgb(42, 63, 95); fill-opacity: 1; white-space: pre;">35%</text></g><g class="ytick"><text text-anchor="end" x="239" y="24.5" transform="translate(0,1430.16)" style="font-family: Myriad; font-size: 70px; fill: rgb(42, 63, 95); fill-opacity: 1; white-space: pre;">40%</text></g><g class="ytick"><text text-anchor="end" x="239" y="24.5" transform="translate(0,1326.24)" style="font-family: Myriad; font-size: 70px; fill: rgb(42, 63, 95); fill-opacity: 1; white-space: pre;">45%</text></g><g class="ytick"><text text-anchor="end" x="239" y="24.5" transform="translate(0,1222.32)" style="font-family: Myriad; font-size: 70px; fill: rgb(42, 63, 95); fill-opacity: 1; white-space: pre;">50%</text></g><g class="ytick"><text text-anchor="end" x="239" y="24.5" transform="translate(0,1118.4099999999999)" style="font-family: Myriad; font-size: 70px; fill: rgb(42, 63, 95); fill-opacity: 1; white-space: pre;">55%</text></g><g class="ytick"><text text-anchor="end" x="239" y="24.5" transform="translate(0,1014.49)" style="font-family: Myriad; font-size: 70px; fill: rgb(42, 63, 95); fill-opacity: 1; white-space: pre;">60%</text></g><g class="ytick"><text text-anchor="end" x="239" y="24.5" transform="translate(0,910.57)" style="font-family: Myriad; font-size: 70px; fill: rgb(42, 63, 95); fill-opacity: 1; white-space: pre;">65%</text></g><g class="ytick"><text text-anchor="end" x="239" y="24.5" transform="translate(0,806.65)" style="font-family: Myriad; font-size: 70px; fill: rgb(42, 63, 95); fill-opacity: 1; white-space: pre;">70%</text></g><g class="ytick"><text text-anchor="end" x="239" y="24.5" transform="translate(0,702.73)" style="font-family: Myriad; font-size: 70px; fill: rgb(42, 63, 95); fill-opacity: 1; white-space: pre;">75%</text></g><g class="ytick"><text text-anchor="end" x="239" y="24.5" transform="translate(0,598.81)" style="font-family: Myriad; font-size: 70px; fill: rgb(42, 63, 95); fill-opacity: 1; white-space: pre;">80%</text></g><g class="ytick"><text text-anchor="end" x="239" y="24.5" transform="translate(0,494.89)" style="font-family: Myriad; font-size: 70px; fill: rgb(42, 63, 95); fill-opacity: 1; white-space: pre;">85%</text></g><g class="ytick"><text text-anchor="end" x="239" y="24.5" transform="translate(0,390.97)" style="font-family: Myriad; font-size: 70px; fill: rgb(42, 63, 95); fill-opacity: 1; white-space: pre;">90%</text></g><g class="ytick"><text text-anchor="end" x="239" y="24.5" transform="translate(0,287.05)" style="font-family: Myriad; font-size: 70px; fill: rgb(42, 63, 95); fill-opacity: 1; white-space: pre;">95%</text></g><g class="ytick"><text text-anchor="end" x="239" y="24.5" transform="translate(0,183.14)" style="font-family: Myriad; font-size: 70px; fill: rgb(42, 63, 95); fill-opacity: 1; white-space: pre;">100%</text></g></g><g class="overaxes-above"/></g></g><g class="polarlayer"/><g class="ternarylayer"/><g class="geolayer"/><g class="funnelarealayer"/><g class="pielayer"/><g class="treemaplayer"/><g class="sunburstlayer"/><g class="glimages"/><defs id="topdefs-a88280"><g class="clips"/></defs><g class="layer-above"><g class="imagelayer"/><g class="shapelayer"/></g><g class="infolayer"><g class="g-gtitle"/><g class="g-xtitle" transform="translate(0,-3)"><text class="xtitle" x="1880" y="1788" text-anchor="middle" style="font-family: Myriad; font-size: 70px; fill: rgb(42, 63, 95); opacity: 1; font-weight: normal; white-space: pre;">Ct value cut-off</text></g><g class="g-ytitle" transform="translate(50.8125,0)"><text class="ytitle" transform="rotate(-90,11.6875,869)" x="11.6875" y="869" text-anchor="middle" style="font-family: Myriad; font-size: 70px; fill: rgb(42, 63, 95); opacity: 1; font-weight: normal; white-space: pre;">Sensitivity</text></g><g class="annotation" data-index="0" style="opacity: 1;"><g class="annotation-text-g" transform="rotate(0,1951.65,287.05)"><g class="cursor-pointer" transform="translate(539,246)"><rect class="bg" x="0.5" y="0.5" width="2825" height="81" style="stroke-width: 1px; stroke: rgb(0, 0, 0); stroke-opacity: 0; fill: rgb(0, 0, 0); fill-opacity: 0;"/><text class="annotation-text" text-anchor="middle" x="1412.921875" y="64.5" style="font-family: Myriad; font-size: 70px; fill: rgb(42, 63, 95); fill-opacity: 1; white-space: pre;">Cumulative number of sample pairs with oro-nasopharyngeal RT-PCR results under a given Ct value</text></g></g><g class="annotation-arrow-g" style="opacity: 1;"><path d="M1946.4790271362588,327.55L1872.04,910.57" style="stroke-width: 2px; stroke: rgb(0, 0, 0); stroke-opacity: 1; stroke-dasharray: 0px, 0px, 578.453px, 587.753px;"/><path d="M-4.45,-3L-1.65,-0.2V0.2L-4.45,3L1.55,0Z" transform="translate(1873.2178955078125,901.3449096679688)rotate(97.29419630854086)scale(6)" style="fill: rgb(0, 0, 0); stroke-width: 0;"/></g></g></g></svg>